<svg width="60" height="61" viewBox="0 0 60 61" fill="none" xmlns="http://www.w3.org/2000/svg">
<g clip-path="url(#clip0_1_183)">
<path d="M45.4102 13.7937C45.1758 11.3328 44.1406 9.26245 42.3047 7.58276C40.4688 5.90308 38.3008 5.06323 35.8008 5.06323C35.0977 5.06323 34.4141 5.13159 33.75 5.26831C33.0859 5.40503 32.4414 5.61011 31.8164 5.88354C30.6445 4.12573 29.1211 2.73901 27.2461 1.72339C25.3711 0.707764 23.3789 0.199951 21.2695 0.199951C19.5898 0.199951 18.0273 0.512451 16.582 1.13745C15.0977 1.72339 13.7891 2.55347 12.6562 3.62769C11.5234 4.7019 10.6055 5.94214 9.90234 7.34839C9.19922 8.7937 8.80859 10.3367 8.73047 11.9773C6.19141 12.446 4.10156 13.657 2.46094 15.6101C0.820312 17.5632 0 19.8484 0 22.4656C0 24.6921 0.615234 26.7039 1.8457 28.5007C3.07617 30.2976 4.70703 31.5867 6.73828 32.3679V49.5359C6.73828 50.864 7.2168 52.0066 8.17383 52.9636C9.13086 53.9207 10.2734 54.3992 11.6016 54.3992H17.4023V58.2664H13.5352V60.2H40.6055V58.2664H36.7383V54.3992H42.5391C43.8672 54.3992 45.0098 53.9207 45.9668 52.9636C46.9238 52.0066 47.4023 50.864 47.4023 49.5359V32.6609C49.3945 32.0359 51.0156 30.8738 52.2656 29.1746C53.5156 27.4753 54.1406 25.5515 54.1406 23.4031C54.1406 20.9031 53.3008 18.7351 51.6211 16.8992C49.9414 15.0632 47.8711 14.0281 45.4102 13.7937ZM34.8047 58.2664H19.3359V54.3992H34.8047V58.2664ZM45.4688 49.5359C45.4688 50.3562 45.1855 51.0496 44.6191 51.616C44.0527 52.1824 43.3594 52.4656 42.5391 52.4656H11.6016C10.7812 52.4656 10.0879 52.1824 9.52148 51.616C8.95508 51.0496 8.67188 50.3562 8.67188 49.5359V48.5984H45.4688V49.5359ZM47.4023 30.6101V30.2C47.4023 28.8718 46.9238 27.7292 45.9668 26.7722C45.0098 25.8152 43.8672 25.3367 42.5391 25.3367H39.668V15.6687H37.7344V31.196H39.668L35.8008 36.3523L31.9336 31.196H33.8672V15.6687H31.9336V29.2039H28.0664L35.8008 39.575L43.5352 29.2039H39.668V27.2703H42.5391C43.3594 27.2703 44.0527 27.5632 44.6191 28.1492C45.1855 28.7351 45.4688 29.4187 45.4688 30.2V46.6648H8.67188V30.2C8.67188 29.4187 8.95508 28.7351 9.52148 28.1492C10.0879 27.5632 10.7812 27.2703 11.6016 27.2703H14.4727V36.9968H16.4062V21.4695H14.4727L18.3398 16.3132L22.207 21.4695H20.2734V36.9968H22.207V23.4031H26.0742L18.3398 13.0906L10.6055 23.4031H14.4727V25.3367H11.6016C10.2734 25.3367 9.13086 25.8152 8.17383 26.7722C7.2168 27.7292 6.73828 28.8718 6.73828 30.2V30.2585C5.29297 29.5554 4.13086 28.5007 3.25195 27.0945C2.37305 25.6882 1.93359 24.1453 1.93359 22.4656C1.93359 20.2 2.67578 18.2468 4.16016 16.6062C5.64453 14.9656 7.5 14.0281 9.72656 13.7937L10.6055 13.6765V12.7976C10.6055 9.86792 11.6504 7.35815 13.7402 5.26831C15.8301 3.17847 18.3398 2.13354 21.2695 2.13354C23.1836 2.13354 24.9805 2.63159 26.6602 3.62769C28.3398 4.62378 29.6484 5.96167 30.5859 7.64136L31.0547 8.52026L31.9336 7.99292C32.5195 7.68042 33.1348 7.43628 33.7793 7.2605C34.4238 7.08472 35.0977 6.99683 35.8008 6.99683C37.9102 6.99683 39.7266 7.74878 41.25 9.25269C42.7734 10.7566 43.5352 12.5828 43.5352 14.7312V15.6687H44.4727C46.6211 15.6687 48.4473 16.4304 49.9512 17.9539C51.4551 19.4773 52.207 21.2937 52.207 23.4031C52.207 25.0437 51.7676 26.5085 50.8887 27.7976C50.0098 29.0867 48.8477 30.0242 47.4023 30.6101Z" fill="#210D94"/>
</g>
<defs>
<clipPath id="clip0_1_183">
<rect width="60" height="60" fill="white" transform="matrix(1 0 0 -1 0 60.2)"/>
</clipPath>
</defs>
</svg>
