<svg width="60" height="61" viewBox="0 0 60 61" fill="none" xmlns="http://www.w3.org/2000/svg">
<g clip-path="url(#clip0_1_207)">
<path d="M45.9375 21.1765C45.9375 19.4187 45.7227 17.7 45.293 16.0203C44.8633 14.3406 44.248 12.7585 43.4473 11.2742C42.6465 9.78979 41.6895 8.42261 40.5762 7.17261C39.4629 5.92261 38.2227 4.82886 36.8555 3.89136L36.6797 3.77417L36.4453 3.65698C36.2109 3.50073 35.9863 3.35425 35.7715 3.21753C35.5566 3.08081 35.332 2.93433 35.0977 2.77808C35.0195 2.73901 34.9316 2.69995 34.834 2.66089C34.7363 2.62183 34.6484 2.58276 34.5703 2.5437C34.375 2.46558 34.1895 2.37769 34.0137 2.28003C33.8379 2.18237 33.6523 2.09448 33.457 2.01636C33.3398 1.97729 33.2227 1.92847 33.1055 1.86987C32.9883 1.81128 32.8906 1.76245 32.8125 1.72339C32.6172 1.64526 32.4121 1.56714 32.1973 1.48901C31.9824 1.41089 31.7773 1.35229 31.582 1.31323C31.5039 1.27417 31.416 1.23511 31.3184 1.19604C31.2207 1.15698 31.1328 1.13745 31.0547 1.13745C30.7812 1.02026 30.498 0.932373 30.2051 0.873779C29.9121 0.815186 29.6289 0.746826 29.3555 0.668701C29.2773 0.629639 29.1895 0.610107 29.0918 0.610107C28.9941 0.610107 28.9062 0.590576 28.8281 0.551514C28.5938 0.512451 28.3594 0.473389 28.125 0.434326C27.8906 0.395264 27.6562 0.375732 27.4219 0.375732C27.3438 0.33667 27.2559 0.317139 27.1582 0.317139C27.0605 0.317139 26.9727 0.317139 26.8945 0.317139C26.543 0.278076 26.2109 0.248779 25.8984 0.229248C25.5859 0.209717 25.2734 0.199951 24.9609 0.199951C24.6484 0.199951 24.3262 0.209717 23.9941 0.229248C23.6621 0.248779 23.3398 0.278076 23.0273 0.317139C22.9492 0.317139 22.8613 0.317139 22.7637 0.317139C22.666 0.317139 22.5781 0.33667 22.5 0.375732C22.2656 0.375732 22.0215 0.395264 21.7676 0.434326C21.5137 0.473389 21.2695 0.512451 21.0352 0.551514C20.957 0.590576 20.8789 0.619873 20.8008 0.639404C20.7227 0.658936 20.6445 0.668701 20.5664 0.668701C19.9414 0.785889 19.3262 0.942139 18.7207 1.13745C18.1152 1.33276 17.5195 1.54761 16.9336 1.78198C16.8945 1.82104 16.8457 1.85034 16.7871 1.86987C16.7285 1.8894 16.6602 1.9187 16.582 1.95776C16.3477 2.07495 16.1133 2.19214 15.8789 2.30933C15.6445 2.42651 15.4102 2.5437 15.1758 2.66089C15.0977 2.66089 15.0391 2.68042 15 2.71948C14.9609 2.75854 14.9219 2.77808 14.8828 2.77808C14.5703 2.93433 14.2773 3.10034 14.0039 3.27612C13.7305 3.4519 13.457 3.63745 13.1836 3.83276L12.7148 4.12573V4.18433C12.4023 4.4187 12.0898 4.66284 11.7773 4.91675C11.4648 5.17065 11.1523 5.43433 10.8398 5.70776L7.96875 2.83667L7.26562 3.53979C6.09375 4.71167 5.05859 5.9812 4.16016 7.34839C3.26172 8.71558 2.5 10.1414 1.875 11.6257C1.25 13.1101 0.78125 14.6628 0.46875 16.2839C0.15625 17.905 0 19.5359 0 21.1765C0 22.8562 0.15625 24.5066 0.46875 26.1277C0.78125 27.7488 1.25 29.3015 1.875 30.7859C2.5 32.2703 3.26172 33.696 4.16016 35.0632C5.05859 36.4304 6.09375 37.7 7.26562 38.8718C9.53125 41.0984 12.0898 42.8367 14.9414 44.0867C17.793 45.3367 20.8008 46.0203 23.9648 46.1375V55.2195H14.0039V60.2H35.9766V55.2195H25.957V46.1375C29.1211 46.0203 32.1289 45.3367 34.9805 44.0867C37.832 42.8367 40.3906 41.0984 42.6562 38.8718L43.3594 38.1687L40.4883 35.2976C42.168 33.4226 43.4961 31.2839 44.4727 28.8816C45.4492 26.4792 45.9375 23.9109 45.9375 21.1765ZM14.707 5.23901C15.1367 4.96558 15.5859 4.7019 16.0547 4.448C16.5234 4.19409 16.9922 3.96948 17.4609 3.77417C17.5 3.73511 17.5488 3.70581 17.6074 3.68628C17.666 3.66675 17.7148 3.65698 17.7539 3.65698C17.9883 3.53979 18.2227 3.44214 18.457 3.36401C18.6914 3.28589 18.9258 3.20776 19.1602 3.12964C19.1992 3.09058 19.2383 3.07104 19.2773 3.07104C19.3164 3.07104 19.3555 3.05151 19.3945 3.01245C19.668 2.93433 19.9414 2.86597 20.2148 2.80737C20.4883 2.74878 20.7812 2.68042 21.0938 2.60229C21.1328 2.60229 21.1719 2.59253 21.2109 2.573C21.25 2.55347 21.2891 2.5437 21.3281 2.5437C21.5625 2.50464 21.7969 2.46558 22.0312 2.42651C22.2656 2.38745 22.5195 2.34839 22.793 2.30933C22.8711 2.30933 22.9395 2.30933 22.998 2.30933C23.0566 2.30933 23.125 2.30933 23.2031 2.30933C23.5156 2.27026 23.8184 2.24097 24.1113 2.22144C24.4043 2.2019 24.6875 2.19214 24.9609 2.19214C25.2344 2.19214 25.5176 2.2019 25.8105 2.22144C26.1035 2.24097 26.3867 2.27026 26.6602 2.30933C26.7383 2.30933 26.8164 2.30933 26.8945 2.30933C26.9727 2.30933 27.0508 2.30933 27.1289 2.30933C27.4023 2.34839 27.666 2.38745 27.9199 2.42651C28.1738 2.46558 28.4375 2.52417 28.7109 2.60229C28.75 2.60229 28.7988 2.60229 28.8574 2.60229C28.916 2.60229 28.9648 2.62183 29.0039 2.66089C29.2383 2.69995 29.4629 2.74878 29.6777 2.80737C29.8926 2.86597 30.1172 2.91479 30.3516 2.95386C30.4297 2.99292 30.5078 3.02222 30.5859 3.04175C30.6641 3.06128 30.7422 3.09058 30.8203 3.12964C31.0547 3.20776 31.2988 3.29565 31.5527 3.39331C31.8066 3.49097 32.0508 3.57886 32.2852 3.65698C32.3242 3.69604 32.373 3.72534 32.4316 3.74487C32.4902 3.7644 32.5586 3.7937 32.6367 3.83276C32.832 3.91089 33.0176 3.99878 33.1934 4.09644C33.3691 4.19409 33.5547 4.28198 33.75 4.36011C33.8281 4.39917 33.9062 4.448 33.9844 4.50659C34.0625 4.56519 34.1406 4.61401 34.2188 4.65308C34.2578 4.65308 34.2969 4.67261 34.3359 4.71167C34.375 4.75073 34.4336 4.77026 34.5117 4.77026C32.9492 5.3562 31.6504 6.02026 30.6152 6.76245C29.5801 7.50464 28.5547 8.53979 27.5391 9.86792C27.5 9.94604 27.4512 10.0242 27.3926 10.1023C27.334 10.1804 27.2852 10.2781 27.2461 10.3953C27.207 10.3171 27.1582 10.2585 27.0996 10.2195C27.041 10.1804 26.9727 10.1414 26.8945 10.1023C26.543 9.86792 26.1328 9.75073 25.6641 9.75073C25.1953 9.75073 24.6875 9.86792 24.1406 10.1023L23.9648 10.1609C23.2617 10.239 22.6855 10.3757 22.2363 10.571C21.7871 10.7664 21.543 11.2937 21.5039 12.1531C21.4648 12.6218 21.5527 13.0515 21.7676 13.4421C21.9824 13.8328 22.2852 14.1453 22.6758 14.3796C22.7539 14.4187 22.832 14.4578 22.9102 14.4968C22.9883 14.5359 23.0664 14.5554 23.1445 14.5554C23.1445 14.5945 23.1445 14.6238 23.1445 14.6433C23.1445 14.6628 23.1641 14.6726 23.2031 14.6726L23.4375 15.0242C23.1641 14.946 22.9102 14.8875 22.6758 14.8484C22.4414 14.8093 22.207 14.7703 21.9727 14.7312C21.6602 14.6921 21.3672 14.6433 21.0938 14.5847C20.8203 14.5261 20.5273 14.4578 20.2148 14.3796C19.1602 13.95 18.2324 12.9929 17.4316 11.5085C16.6309 10.0242 15.9375 8.61792 15.3516 7.28979C15.2344 7.01636 15.127 6.76245 15.0293 6.52808C14.9316 6.2937 14.8242 6.03979 14.707 5.76636C14.707 5.68823 14.707 5.60034 14.707 5.50269C14.707 5.40503 14.707 5.31714 14.707 5.23901ZM28.8281 27.0945C27.8906 26.3132 27.2559 25.405 26.9238 24.3699C26.5918 23.3347 26.6211 22.3484 27.0117 21.4109C27.207 20.9031 27.2168 20.405 27.041 19.9167C26.8652 19.4285 26.543 19.0476 26.0742 18.7742C26.0352 18.696 26.0156 18.5984 26.0156 18.4812C26.0156 18.364 25.9961 18.2664 25.957 18.1882C25.918 17.9148 25.8691 17.6316 25.8105 17.3386C25.752 17.0457 25.6641 16.7429 25.5469 16.4304C25.625 16.5085 25.7031 16.5671 25.7812 16.6062C25.8594 16.6453 25.957 16.6843 26.0742 16.7234C26.1523 16.7625 26.2109 16.7917 26.25 16.8113C26.2891 16.8308 26.3086 16.8601 26.3086 16.8992C26.4258 17.3289 26.6309 17.7 26.9238 18.0125C27.2168 18.325 27.5391 18.5398 27.8906 18.657C28.2422 18.7742 28.6133 18.7937 29.0039 18.7156C29.3945 18.6375 29.7656 18.4812 30.1172 18.2468C30.1953 18.1687 30.2832 18.1394 30.3809 18.1589C30.4785 18.1785 30.7227 18.2664 31.1133 18.4226C31.3477 18.5789 31.6406 18.7156 31.9922 18.8328C32.3438 18.95 32.7344 19.0476 33.1641 19.1257C33.4375 19.3992 33.6816 19.7019 33.8965 20.0339C34.1113 20.366 34.3164 20.7078 34.5117 21.0593C34.8242 21.6062 35.166 22.1335 35.5371 22.6414C35.9082 23.1492 36.3672 23.5398 36.9141 23.8132C37.1094 23.9304 37.1484 24.282 37.0312 24.8679C36.9141 25.4539 36.6406 26.2742 36.2109 27.3289C36.1719 27.446 36.1426 27.5535 36.123 27.6511C36.1035 27.7488 36.0742 27.8367 36.0352 27.9148C35.5273 28.3054 35.0977 28.7253 34.7461 29.1746C34.3945 29.6238 34.0625 30.0632 33.75 30.4929C33.4375 30.9226 33.1348 31.3328 32.8418 31.7234C32.5488 32.114 32.1875 32.4851 31.7578 32.8367C31.0938 33.4226 30.4785 33.8816 29.9121 34.2136C29.3457 34.5457 28.7109 34.8093 28.0078 35.0046C28.7109 33.7546 29.2969 32.3582 29.7656 30.8152C30.2344 29.2722 29.9219 28.032 28.8281 27.0945ZM24.4922 12.2703L23.7891 12.6804C23.7891 12.6804 23.7695 12.6707 23.7305 12.6511C23.6914 12.6316 23.6523 12.6023 23.6133 12.5632C23.5742 12.5242 23.5449 12.4753 23.5254 12.4167C23.5059 12.3582 23.4961 12.3093 23.4961 12.2703C23.4961 12.2703 23.4961 12.2605 23.4961 12.241C23.4961 12.2214 23.4961 12.2117 23.4961 12.2117C23.5742 12.2117 23.6816 12.2019 23.8184 12.1824C23.9551 12.1628 24.082 12.1531 24.1992 12.1531L24.668 12.0945L24.7852 12.0359C25.1758 11.8406 25.4492 11.7429 25.6055 11.7429C25.7617 11.7429 25.8398 11.7429 25.8398 11.7429C25.8398 11.7429 25.8691 11.821 25.9277 11.9773C25.9863 12.1335 26.0156 12.446 26.0156 12.9148V13.2078C25.8984 13.1687 25.7812 13.1394 25.6641 13.1199C25.5469 13.1003 25.4102 13.0906 25.2539 13.0906C25.2148 13.0515 25.1855 13.0125 25.166 12.9734C25.1465 12.9343 25.1172 12.8953 25.0781 12.8562L24.4922 12.2703ZM24.9023 15.7273C24.8242 15.6492 24.7461 15.5808 24.668 15.5222C24.5898 15.4636 24.5312 15.4343 24.4922 15.4343C24.375 15.3562 24.2773 15.3074 24.1992 15.2878C24.1211 15.2683 24.0234 15.239 23.9062 15.2L24.1992 15.1414C24.3164 15.1023 24.4238 15.0828 24.5215 15.0828C24.6191 15.0828 24.707 15.0828 24.7852 15.0828C24.7852 15.2 24.7949 15.3074 24.8145 15.405C24.834 15.5027 24.8633 15.6101 24.9023 15.7273ZM12.832 6.58667C12.8711 6.58667 12.8906 6.59644 12.8906 6.61597C12.8906 6.6355 12.8906 6.66479 12.8906 6.70386C13.0078 6.89917 13.1152 7.11401 13.2129 7.34839C13.3105 7.58276 13.418 7.81714 13.5352 8.05151C14.1992 9.65308 15 11.2742 15.9375 12.9148C16.875 14.5554 18.0664 15.6687 19.5117 16.2546C19.9023 16.3718 20.2832 16.4695 20.6543 16.5476C21.0254 16.6257 21.3672 16.6843 21.6797 16.7234C22.0312 16.7625 22.3633 16.821 22.6758 16.8992C22.9883 16.9773 23.3008 17.075 23.6133 17.1921C23.6133 17.1921 23.623 17.2019 23.6426 17.2214C23.6621 17.241 23.6719 17.2507 23.6719 17.2507C23.7891 17.407 23.8672 17.5925 23.9062 17.8074C23.9453 18.0222 23.9648 18.2273 23.9648 18.4226C24.043 18.7742 24.1309 19.1453 24.2285 19.5359C24.3262 19.9265 24.5898 20.239 25.0195 20.4734C25.0586 20.4734 25.0977 20.4929 25.1367 20.532C25.1758 20.571 25.1953 20.6101 25.1953 20.6492C24.6094 22.0164 24.541 23.4324 24.9902 24.8972C25.4395 26.3621 26.2891 27.6218 27.5391 28.6765C27.7734 28.8328 27.8906 29.2917 27.8906 30.0535C27.8906 30.8152 27.3438 32.1531 26.25 34.0671C26.0547 34.4187 25.9766 34.8093 26.0156 35.239C26.0547 35.6687 26.2109 36.0398 26.4844 36.3523C26.6797 36.5867 26.9141 36.7722 27.1875 36.9089C27.4609 37.0457 27.7539 37.114 28.0664 37.114C28.1836 37.114 28.3008 37.1042 28.418 37.0847C28.5352 37.0652 28.6523 37.0359 28.7695 36.9968C29.5117 36.7234 30.2246 36.3718 30.9082 35.9421C31.5918 35.5125 32.3242 34.9851 33.1055 34.3601C33.6133 33.8914 34.043 33.4324 34.3945 32.9832C34.7461 32.5339 35.0781 32.0945 35.3906 31.6648C35.7031 31.2351 36.0059 30.825 36.2988 30.4343C36.5918 30.0437 36.9727 29.6726 37.4414 29.321L37.7344 29.0867L37.8516 28.7937C37.8906 28.6765 37.9297 28.5593 37.9688 28.4421C38.0078 28.325 38.0469 28.2078 38.0859 28.0906C38.4375 27.1531 38.75 26.0496 39.0234 24.78C39.2969 23.5105 38.9062 22.6023 37.8516 22.0554C37.5391 21.8992 37.2559 21.6355 37.002 21.2644C36.748 20.8933 36.5039 20.4929 36.2695 20.0632C36.0352 19.6726 35.791 19.2722 35.5371 18.8621C35.2832 18.4519 34.9805 18.071 34.6289 17.7195C34.4727 17.5632 34.2871 17.4363 34.0723 17.3386C33.8574 17.241 33.6328 17.1726 33.3984 17.1335C33.125 17.0945 32.8711 17.0261 32.6367 16.9285C32.4023 16.8308 32.168 16.7429 31.9336 16.6648C31.543 16.4695 31.0938 16.3035 30.5859 16.1667C30.0781 16.03 29.5117 16.196 28.8867 16.6648C28.8477 16.7039 28.7988 16.7332 28.7402 16.7527C28.6816 16.7722 28.6133 16.782 28.5352 16.782C28.4961 16.7429 28.4473 16.6941 28.3887 16.6355C28.3301 16.5769 28.2812 16.489 28.2422 16.3718C28.125 15.9812 27.9492 15.6687 27.7148 15.4343C27.4805 15.2 27.168 15.0046 26.7773 14.8484C26.8164 14.6921 26.8359 14.5359 26.8359 14.3796C26.8359 14.2234 26.7969 14.0671 26.7188 13.9109H26.8359C27.3047 13.989 27.7051 13.9792 28.0371 13.8816C28.3691 13.7839 28.6328 13.6179 28.8281 13.3835C29.0625 13.1101 29.1992 12.7878 29.2383 12.4167C29.2773 12.0457 29.2383 11.6257 29.1211 11.157C29.1211 11.157 29.1211 11.1472 29.1211 11.1277C29.1211 11.1082 29.1211 11.0984 29.1211 11.0984C30.0977 9.84839 31.0352 8.90112 31.9336 8.25659C32.832 7.61206 34.043 7.03589 35.5664 6.52808C35.7227 6.48901 35.8691 6.42065 36.0059 6.323C36.1426 6.22534 36.25 6.11792 36.3281 6.00073C38.6328 7.75854 40.4785 9.95581 41.8652 12.5925C43.252 15.2292 43.9453 18.0906 43.9453 21.1765C43.9453 23.7937 43.4473 26.2644 42.4512 28.5886C41.4551 30.9128 40.0977 32.9343 38.3789 34.6531C36.6602 36.3718 34.6484 37.7292 32.3438 38.7253C30.0391 39.7214 27.5781 40.2195 24.9609 40.2195C22.3438 40.2195 19.8828 39.7214 17.5781 38.7253C15.2734 37.7292 13.2617 36.3718 11.543 34.6531C9.82422 32.9343 8.4668 30.9128 7.4707 28.5886C6.47461 26.2644 5.97656 23.7937 5.97656 21.1765C5.97656 18.2468 6.60156 15.5125 7.85156 12.9734C9.10156 10.4343 10.7617 8.30542 12.832 6.58667ZM33.9844 57.2117V58.2078H15.9961V57.2117H33.9844ZM40.4883 38.1687C38.2617 40.239 35.752 41.7722 32.959 42.7683C30.166 43.7644 27.3438 44.2332 24.4922 44.1746C21.6406 44.116 18.8379 43.53 16.084 42.4167C13.3301 41.3035 10.8594 39.6531 8.67188 37.4656C6.52344 35.2781 4.87305 32.7878 3.7207 29.9949C2.56836 27.2019 1.99219 24.2625 1.99219 21.1765C1.99219 18.2859 2.50977 15.5125 3.54492 12.8562C4.58008 10.2 6.07422 7.79761 8.02734 5.64917L9.43359 7.11401C7.75391 8.94995 6.42578 11.0789 5.44922 13.5007C4.47266 15.9226 3.98438 18.4812 3.98438 21.1765C3.98438 24.1062 4.53125 26.8406 5.625 29.3796C6.71875 31.9187 8.21289 34.1355 10.1074 36.03C12.002 37.9246 14.2285 39.4285 16.7871 40.5417C19.3457 41.655 22.0703 42.2117 24.9609 42.2117C27.6953 42.2117 30.2637 41.7234 32.666 40.7468C35.0684 39.7703 37.207 38.4226 39.082 36.7039L40.4883 38.1687Z" fill="#210D94"/>
</g>
<defs>
<clipPath id="clip0_1_207">
<rect width="60" height="60" fill="white" transform="matrix(1 0 0 -1 0 60.2)"/>
</clipPath>
</defs>
</svg>
