<svg width="60" height="61" viewBox="0 0 60 61" fill="none" xmlns="http://www.w3.org/2000/svg">
<g clip-path="url(#clip0_1_220)">
<path d="M1.93359 8.12427H29.0039V27.4602H30.9961V6.19067H0V34.2571H3.86719V32.3235H1.93359V8.12427ZM31.9336 58.4563H7.73438V31.386H27.0703V29.3938H5.80078V60.3899H33.8672V56.5227H31.9336V58.4563ZM56.1328 26.5227V28.4563H58.0664V52.6555H30.9961V33.3196H29.0039V54.5891H60V26.5227H56.1328ZM28.0664 2.32349H52.2656V29.3938H32.9297V31.386H54.1992V0.389893H26.1328V4.25708H28.0664V2.32349ZM32.9297 47.3821V50.7219H56.1328V40.6438L51.2695 35.7805L44.0039 43.0461L40.6641 39.6477L32.9297 47.3821ZM42.3047 47.4993L51.2695 38.5344L54.1992 41.4641V48.7883H34.8633V48.2024L40.6641 42.4016L42.6562 44.3938L40.957 46.1516L42.3047 47.4993ZM47.4023 36.1907C47.4023 35.4094 47.1191 34.7356 46.5527 34.1692C45.9863 33.6028 45.3125 33.3196 44.5312 33.3196C43.7109 33.3196 43.0176 33.6028 42.4512 34.1692C41.8848 34.7356 41.6016 35.4094 41.6016 36.1907C41.6016 37.011 41.8848 37.7043 42.4512 38.2708C43.0176 38.8372 43.7109 39.1204 44.5312 39.1204C45.3125 39.1204 45.9863 38.8372 46.5527 38.2708C47.1191 37.7043 47.4023 37.011 47.4023 36.1907ZM43.5352 36.1907C43.5352 35.9172 43.6328 35.6926 43.8281 35.5168C44.0234 35.3411 44.2578 35.2532 44.5312 35.2532C44.8047 35.2532 45.0293 35.3411 45.2051 35.5168C45.3809 35.6926 45.4688 35.9172 45.4688 36.1907C45.4688 36.4641 45.3809 36.6985 45.2051 36.8938C45.0293 37.0891 44.8047 37.1868 44.5312 37.1868C44.2578 37.1868 44.0234 37.0891 43.8281 36.8938C43.6328 36.6985 43.5352 36.4641 43.5352 36.1907ZM18.3984 36.1907V46.386C18.125 46.2297 17.8223 46.1028 17.4902 46.0051C17.1582 45.9075 16.8164 45.8586 16.4648 45.8586C15.3711 45.8586 14.4531 46.2395 13.7109 47.0012C12.9688 47.7629 12.5977 48.6711 12.5977 49.7258C12.5977 50.8196 12.9688 51.7375 13.7109 52.4797C14.4531 53.2219 15.3711 53.593 16.4648 53.593C17.5195 53.593 18.4277 53.2219 19.1895 52.4797C19.9512 51.7375 20.332 50.8196 20.332 49.7258V40.5266C20.6055 40.6829 20.9082 40.8098 21.2402 40.9075C21.5723 41.0051 21.9141 41.054 22.2656 41.054C22.8125 41.054 23.2715 41.2395 23.6426 41.6106C24.0137 41.9817 24.1992 42.4407 24.1992 42.9875H26.1328C26.1328 41.8938 25.752 40.9758 24.9902 40.2336C24.2285 39.4915 23.3203 39.1204 22.2656 39.1204C21.7188 39.1204 21.2598 38.925 20.8887 38.5344C20.5176 38.1438 20.332 37.6946 20.332 37.1868V36.1907H18.3984ZM16.4648 51.6594C15.918 51.6594 15.459 51.4739 15.0879 51.1028C14.7168 50.7317 14.5312 50.2727 14.5312 49.7258C14.5312 49.218 14.7168 48.7688 15.0879 48.3782C15.459 47.9875 15.918 47.7922 16.4648 47.7922C16.9727 47.7922 17.4219 47.9875 17.8125 48.3782C18.2031 48.7688 18.3984 49.218 18.3984 49.7258C18.3984 50.2727 18.2031 50.7317 17.8125 51.1028C17.4219 51.4739 16.9727 51.6594 16.4648 51.6594ZM38.0273 11.054H35.8008V20.7219H38.0273L46.4648 15.8586L38.0273 11.054ZM37.7344 18.6125V13.1047L42.5391 15.8586L37.7344 18.6125ZM5.80078 12.9875H7.73438V14.9211H5.80078V12.9875ZM9.66797 12.9875H11.6016V14.9211H9.66797V12.9875ZM13.5352 12.9875H15.4688V14.9211H13.5352V12.9875ZM5.80078 16.8547H25.1367V18.7883H5.80078V16.8547ZM5.80078 20.7219H25.1367V22.6555H5.80078V20.7219ZM5.80078 24.5891H21.2695V26.5227H5.80078V24.5891ZM29.0039 29.3938H30.9961V31.386H29.0039V29.3938Z" fill="#210D94"/>
</g>
<defs>
<clipPath id="clip0_1_220">
<rect width="60" height="60" fill="white" transform="matrix(1 0 0 -1 0 60.3899)"/>
</clipPath>
</defs>
</svg>
