<svg width="60" height="61" viewBox="0 0 60 61" fill="none" xmlns="http://www.w3.org/2000/svg">
<path d="M30 8.63745H3.75V49.8875H30V8.63745ZM28.125 48.0125H5.625V10.5125H28.125V48.0125ZM26.25 12.3875H7.5V18.0125H26.25V12.3875ZM9.375 14.2625H20.625V16.1375H9.375V14.2625ZM24.375 16.1375H22.5V14.2625H24.375V16.1375ZM20.625 46.1375H26.25V40.5125H20.625V46.1375ZM22.5 42.3875H24.375V44.2625H22.5V42.3875ZM13.125 46.1375H18.75V40.5125H13.125V46.1375ZM15 42.3875H16.875V44.2625H15V42.3875ZM20.625 33.0125H15V38.6375H20.625V33.0125ZM18.75 36.7625H16.875V34.8875H18.75V36.7625ZM13.125 33.0125H7.5V38.6375H13.125V33.0125ZM11.25 36.7625H9.375V34.8875H11.25V36.7625ZM46.875 15.2C47.6562 15.2 48.3203 14.9265 48.8672 14.3796C49.4141 13.8328 49.6875 13.1687 49.6875 12.3875C49.6875 11.6062 49.4141 10.9421 48.8672 10.3953C48.3203 9.84839 47.6562 9.57495 46.875 9.57495C46.0938 9.57495 45.4297 9.84839 44.8828 10.3953C44.3359 10.9421 44.0625 11.6062 44.0625 12.3875C44.0625 13.1687 44.3359 13.8328 44.8828 14.3796C45.4297 14.9265 46.0938 15.2 46.875 15.2ZM46.875 11.45C47.1484 11.45 47.373 11.5378 47.5488 11.7136C47.7246 11.8894 47.8125 12.114 47.8125 12.3875C47.8125 12.6609 47.7246 12.8855 47.5488 13.0613C47.373 13.2371 47.1484 13.325 46.875 13.325C46.6016 13.325 46.377 13.2371 46.2012 13.0613C46.0254 12.8855 45.9375 12.6609 45.9375 12.3875C45.9375 12.114 46.0254 11.8894 46.2012 11.7136C46.377 11.5378 46.6016 11.45 46.875 11.45ZM46.875 45.2C46.0938 45.2 45.4297 45.4734 44.8828 46.0203C44.3359 46.5671 44.0625 47.2312 44.0625 48.0125C44.0625 48.7937 44.3359 49.4578 44.8828 50.0046C45.4297 50.5515 46.0938 50.825 46.875 50.825C47.6562 50.825 48.3203 50.5515 48.8672 50.0046C49.4141 49.4578 49.6875 48.7937 49.6875 48.0125C49.6875 47.2312 49.4141 46.5671 48.8672 46.0203C48.3203 45.4734 47.6562 45.2 46.875 45.2ZM46.875 48.95C46.6016 48.95 46.377 48.8621 46.2012 48.6863C46.0254 48.5105 45.9375 48.2859 45.9375 48.0125C45.9375 47.739 46.0254 47.5144 46.2012 47.3386C46.377 47.1628 46.6016 47.075 46.875 47.075C47.1484 47.075 47.373 47.1628 47.5488 47.3386C47.7246 47.5144 47.8125 47.739 47.8125 48.0125C47.8125 48.2859 47.7246 48.5105 47.5488 48.6863C47.373 48.8621 47.1484 48.95 46.875 48.95ZM51.2695 14.4382L50.0391 15.8445C52.0312 17.7195 53.5645 19.8972 54.6387 22.3777C55.7129 24.8582 56.25 27.4656 56.25 30.2C56.25 32.9343 55.7129 35.5417 54.6387 38.0222C53.5645 40.5027 52.0312 42.6804 50.0391 44.5554L51.2695 45.9617C53.457 43.9304 55.1465 41.5378 56.3379 38.7839C57.5293 36.03 58.125 33.1687 58.125 30.2C58.125 27.2312 57.5293 24.3699 56.3379 21.616C55.1465 18.8621 53.457 16.4695 51.2695 14.4382ZM33.75 49.6531V45.9031C34.2188 45.9812 34.6875 46.0398 35.1562 46.0789C35.625 46.1179 36.0938 46.1375 36.5625 46.1375C38.75 46.1375 40.8203 45.7273 42.7734 44.907C44.6875 44.0476 46.3672 42.8953 47.8125 41.45C49.2578 40.0046 50.4102 38.325 51.2695 36.4109C52.0898 34.4578 52.5 32.3875 52.5 30.2C52.5 28.0125 52.0898 25.9421 51.2695 23.989C50.4102 22.075 49.2578 20.3953 47.8125 18.95C46.3672 17.5046 44.6875 16.3523 42.7734 15.4929C40.8203 14.6726 38.75 14.2625 36.5625 14.2625C36.0938 14.2625 35.625 14.282 35.1562 14.321C34.6875 14.3601 34.2188 14.4187 33.75 14.4968V10.7468C35.1953 10.5125 36.6406 10.4539 38.0859 10.571C39.5312 10.6882 40.9375 10.9617 42.3047 11.3914L42.8906 9.57495C41.4062 9.14526 39.8926 8.86206 38.3496 8.72534C36.8066 8.58862 35.2734 8.61792 33.75 8.81323V5.82495C33.75 4.53589 33.291 3.43237 32.373 2.5144C31.4551 1.59644 30.3516 1.13745 29.0625 1.13745H4.6875C3.39844 1.13745 2.29492 1.59644 1.37695 2.5144C0.458984 3.43237 0 4.53589 0 5.82495V54.575C0 55.864 0.458984 56.9675 1.37695 57.8855C2.29492 58.8035 3.39844 59.2625 4.6875 59.2625H29.0625C30.3516 59.2625 31.4551 58.8035 32.373 57.8855C33.291 56.9675 33.75 55.864 33.75 54.575V51.5867C34.2188 51.6257 34.6875 51.6648 35.1562 51.7039C35.625 51.7429 36.0938 51.7625 36.5625 51.7625C37.6172 51.7625 38.6816 51.6843 39.7559 51.5281C40.8301 51.3718 41.875 51.1375 42.8906 50.825L42.3047 49.0085C40.9375 49.4382 39.5312 49.7117 38.0859 49.8289C36.6406 49.946 35.1953 49.8875 33.75 49.6531ZM50.5664 29.2625H44.9414C44.9023 28.2468 44.7852 27.2605 44.5898 26.3035C44.3945 25.3464 44.1406 24.4578 43.8281 23.6375H48.9844C49.4531 24.4968 49.8145 25.3953 50.0684 26.3328C50.3223 27.2703 50.4883 28.2468 50.5664 29.2625ZM33.75 31.1375H43.0664C43.0273 32.1921 42.8906 33.1882 42.6562 34.1257C42.4219 35.0632 42.1289 35.9421 41.7773 36.7625H33.75V31.1375ZM44.9414 31.1375H50.5664C50.4883 32.1531 50.3223 33.1296 50.0684 34.0671C49.8145 35.0046 49.4531 35.9031 48.9844 36.7625H43.8281C44.1406 35.9421 44.3945 35.0535 44.5898 34.0964C44.7852 33.1394 44.9023 32.1531 44.9414 31.1375ZM43.0664 29.2625H33.75V23.6375H41.7773C42.1289 24.4578 42.4219 25.3367 42.6562 26.2742C42.8906 27.2117 43.0273 28.2078 43.0664 29.2625ZM33.75 38.6375H40.8398C39.9805 40.1609 39.0918 41.4011 38.1738 42.3582C37.2559 43.3152 36.6211 43.95 36.2695 44.2625C35.8398 44.2625 35.4102 44.2332 34.9805 44.1746C34.5508 44.116 34.1406 44.0476 33.75 43.9695V38.6375ZM39.2578 44.0281C39.8047 43.4031 40.4199 42.6414 41.1035 41.7429C41.7871 40.8445 42.4023 39.8093 42.9492 38.6375H47.8125C46.7578 40.0046 45.498 41.157 44.0332 42.0945C42.5684 43.032 40.9766 43.6765 39.2578 44.0281ZM47.8125 21.7625H42.9492C42.4023 20.5906 41.7871 19.5554 41.1035 18.657C40.4199 17.7585 39.8047 16.9968 39.2578 16.3718C40.9766 16.7234 42.5684 17.3679 44.0332 18.3054C45.498 19.2429 46.7578 20.3953 47.8125 21.7625ZM36.2695 16.1375C36.6211 16.45 37.2559 17.0847 38.1738 18.0417C39.0918 18.9988 39.9805 20.239 40.8398 21.7625H33.75V16.4304C34.1406 16.3523 34.5508 16.2839 34.9805 16.2253C35.4102 16.1667 35.8398 16.1375 36.2695 16.1375ZM22.2656 3.01245L21.7969 4.88745H11.9531L11.4844 3.01245H22.2656ZM4.6875 3.01245H9.60938L10.5469 6.76245H23.2031L24.1406 3.01245H29.0625C29.8437 3.01245 30.5078 3.28589 31.0547 3.83276C31.6016 4.37964 31.875 5.0437 31.875 5.82495V51.7625H1.875V5.82495C1.875 5.0437 2.14844 4.37964 2.69531 3.83276C3.24219 3.28589 3.90625 3.01245 4.6875 3.01245ZM29.0625 57.3875H4.6875C3.90625 57.3875 3.24219 57.114 2.69531 56.5671C2.14844 56.0203 1.875 55.3562 1.875 54.575V53.6375H31.875V54.575C31.875 55.3562 31.6016 56.0203 31.0547 56.5671C30.5078 57.114 29.8437 57.3875 29.0625 57.3875Z" fill="#210D94"/>
</svg>
