<svg width="60" height="61" viewBox="0 0 60 61" fill="none" xmlns="http://www.w3.org/2000/svg">
<path d="M53.0273 20.1804V13.2078H45.9961V6.17651H0V40.2195H6.97266V47.1921H14.0039V54.2234H60V20.1804H53.0273ZM1.99219 38.2273V8.22729H44.0039V13.2078H6.97266V38.2273H1.99219ZM9.02344 45.2V15.2H50.9766V20.1804H14.0039V45.2H9.02344ZM58.0078 52.1726H15.9961V22.1726H58.0078V52.1726ZM34.9805 16.196C34.9805 16.4695 34.8828 16.7039 34.6875 16.8992C34.4922 17.0945 34.2578 17.1921 33.9844 17.1921C33.7109 17.1921 33.4766 17.0945 33.2812 16.8992C33.0859 16.7039 32.9883 16.4695 32.9883 16.196C32.9883 15.9226 33.0859 15.6882 33.2812 15.4929C33.4766 15.2976 33.7109 15.2 33.9844 15.2C34.2578 15.2 34.4922 15.2976 34.6875 15.4929C34.8828 15.6882 34.9805 15.9226 34.9805 16.196ZM38.0273 19.1843C38.0273 19.4578 37.9297 19.6921 37.7344 19.8875C37.5391 20.0828 37.2852 20.1804 36.9727 20.1804C36.6992 20.1804 36.4648 20.0828 36.2695 19.8875C36.0742 19.6921 35.9766 19.4578 35.9766 19.1843C35.9766 18.9109 36.0742 18.6765 36.2695 18.4812C36.4648 18.2859 36.6992 18.1882 36.9727 18.1882C37.2852 18.1882 37.5391 18.2859 37.7344 18.4812C37.9297 18.6765 38.0273 18.9109 38.0273 19.1843ZM41.0156 16.196C41.0156 16.4695 40.918 16.7039 40.7227 16.8992C40.5273 17.0945 40.293 17.1921 40.0195 17.1921C39.7461 17.1921 39.5117 17.0945 39.3164 16.8992C39.1211 16.7039 39.0234 16.4695 39.0234 16.196C39.0234 15.9226 39.1211 15.6882 39.3164 15.4929C39.5117 15.2976 39.7461 15.2 40.0195 15.2C40.293 15.2 40.5273 15.2976 40.7227 15.4929C40.918 15.6882 41.0156 15.9226 41.0156 16.196ZM46.9922 16.196C46.9922 16.4695 46.8945 16.7039 46.6992 16.8992C46.5039 17.0945 46.2695 17.1921 45.9961 17.1921C45.7227 17.1921 45.4883 17.0945 45.293 16.8992C45.0977 16.7039 45 16.4695 45 16.196C45 15.9226 45.0977 15.6882 45.293 15.4929C45.4883 15.2976 45.7227 15.2 45.9961 15.2C46.2695 15.2 46.5039 15.2976 46.6992 15.4929C46.8945 15.6882 46.9922 15.9226 46.9922 16.196ZM44.0039 19.1843C44.0039 19.4578 43.9062 19.6921 43.7109 19.8875C43.5156 20.0828 43.2812 20.1804 43.0078 20.1804C42.7344 20.1804 42.5 20.0828 42.3047 19.8875C42.1094 19.6921 42.0117 19.4578 42.0117 19.1843C42.0117 18.9109 42.1094 18.6765 42.3047 18.4812C42.5 18.2859 42.7344 18.1882 43.0078 18.1882C43.2812 18.1882 43.5156 18.2859 43.7109 18.4812C43.9062 18.6765 44.0039 18.9109 44.0039 19.1843ZM49.9805 19.1843C49.9805 19.4578 49.8828 19.6921 49.6875 19.8875C49.4922 20.0828 49.2578 20.1804 48.9844 20.1804C48.7109 20.1804 48.4766 20.0828 48.2812 19.8875C48.0859 19.6921 47.9883 19.4578 47.9883 19.1843C47.9883 18.9109 48.0859 18.6765 48.2812 18.4812C48.4766 18.2859 48.7109 18.1882 48.9844 18.1882C49.2578 18.1882 49.4922 18.2859 49.6875 18.4812C49.8828 18.6765 49.9805 18.9109 49.9805 19.1843ZM29.0039 16.196C29.0039 16.4695 28.9062 16.7039 28.7109 16.8992C28.5156 17.0945 28.2812 17.1921 28.0078 17.1921C27.7344 17.1921 27.5 17.0945 27.3047 16.8992C27.1094 16.7039 27.0117 16.4695 27.0117 16.196C27.0117 15.9226 27.1094 15.6882 27.3047 15.4929C27.5 15.2976 27.7344 15.2 28.0078 15.2C28.2812 15.2 28.5156 15.2976 28.7109 15.4929C28.9062 15.6882 29.0039 15.9226 29.0039 16.196ZM31.9922 19.1843C31.9922 19.4578 31.8945 19.6921 31.6992 19.8875C31.5039 20.0828 31.2695 20.1804 30.9961 20.1804C30.7227 20.1804 30.4883 20.0828 30.293 19.8875C30.0977 19.6921 30 19.4578 30 19.1843C30 18.9109 30.0977 18.6765 30.293 18.4812C30.4883 18.2859 30.7227 18.1882 30.9961 18.1882C31.2695 18.1882 31.5039 18.2859 31.6992 18.4812C31.8945 18.6765 31.9922 18.9109 31.9922 19.1843ZM11.0156 16.196C11.0156 16.4695 10.918 16.7039 10.7227 16.8992C10.5273 17.0945 10.293 17.1921 10.0195 17.1921C9.74609 17.1921 9.51172 17.0945 9.31641 16.8992C9.12109 16.7039 9.02344 16.4695 9.02344 16.196C9.02344 15.9226 9.12109 15.6882 9.31641 15.4929C9.51172 15.2976 9.74609 15.2 10.0195 15.2C10.293 15.2 10.5273 15.2976 10.7227 15.4929C10.918 15.6882 11.0156 15.9226 11.0156 16.196ZM11.0156 22.1726C11.0156 22.4851 10.918 22.739 10.7227 22.9343C10.5273 23.1296 10.293 23.2273 10.0195 23.2273C9.74609 23.2273 9.51172 23.1296 9.31641 22.9343C9.12109 22.739 9.02344 22.4851 9.02344 22.1726C9.02344 21.8992 9.12109 21.6648 9.31641 21.4695C9.51172 21.2742 9.74609 21.1765 10.0195 21.1765C10.293 21.1765 10.5273 21.2742 10.7227 21.4695C10.918 21.6648 11.0156 21.8992 11.0156 22.1726ZM14.0039 19.1843C14.0039 19.4578 13.9062 19.6921 13.7109 19.8875C13.5156 20.0828 13.2812 20.1804 13.0078 20.1804C12.7344 20.1804 12.5 20.0828 12.3047 19.8875C12.1094 19.6921 12.0117 19.4578 12.0117 19.1843C12.0117 18.9109 12.1094 18.6765 12.3047 18.4812C12.5 18.2859 12.7344 18.1882 13.0078 18.1882C13.2812 18.1882 13.5156 18.2859 13.7109 18.4812C13.9062 18.6765 14.0039 18.9109 14.0039 19.1843ZM14.0039 25.2195C14.0039 25.4929 13.9062 25.7273 13.7109 25.9226C13.5156 26.1179 13.2812 26.2156 13.0078 26.2156C12.7344 26.2156 12.5 26.1179 12.3047 25.9226C12.1094 25.7273 12.0117 25.4929 12.0117 25.2195C12.0117 24.946 12.1094 24.7117 12.3047 24.5164C12.5 24.321 12.7344 24.2234 13.0078 24.2234C13.2812 24.2234 13.5156 24.321 13.7109 24.5164C13.9062 24.7117 14.0039 24.946 14.0039 25.2195ZM16.9922 16.196C16.9922 16.4695 16.8945 16.7039 16.6992 16.8992C16.5039 17.0945 16.2695 17.1921 15.9961 17.1921C15.7227 17.1921 15.4883 17.0945 15.293 16.8992C15.0977 16.7039 15 16.4695 15 16.196C15 15.9226 15.0977 15.6882 15.293 15.4929C15.4883 15.2976 15.7227 15.2 15.9961 15.2C16.2695 15.2 16.5039 15.2976 16.6992 15.4929C16.8945 15.6882 16.9922 15.9226 16.9922 16.196ZM23.0273 16.196C23.0273 16.4695 22.9297 16.7039 22.7344 16.8992C22.5391 17.0945 22.2852 17.1921 21.9727 17.1921C21.6992 17.1921 21.4648 17.0945 21.2695 16.8992C21.0742 16.7039 20.9766 16.4695 20.9766 16.196C20.9766 15.9226 21.0742 15.6882 21.2695 15.4929C21.4648 15.2976 21.6992 15.2 21.9727 15.2C22.2852 15.2 22.5391 15.2976 22.7344 15.4929C22.9297 15.6882 23.0273 15.9226 23.0273 16.196ZM19.9805 19.1843C19.9805 19.4578 19.8828 19.6921 19.6875 19.8875C19.4922 20.0828 19.2578 20.1804 18.9844 20.1804C18.7109 20.1804 18.4766 20.0828 18.2812 19.8875C18.0859 19.6921 17.9883 19.4578 17.9883 19.1843C17.9883 18.9109 18.0859 18.6765 18.2812 18.4812C18.4766 18.2859 18.7109 18.1882 18.9844 18.1882C19.2578 18.1882 19.4922 18.2859 19.6875 18.4812C19.8828 18.6765 19.9805 18.9109 19.9805 19.1843ZM26.0156 19.1843C26.0156 19.4578 25.918 19.6921 25.7227 19.8875C25.5273 20.0828 25.293 20.1804 25.0195 20.1804C24.7461 20.1804 24.5117 20.0828 24.3164 19.8875C24.1211 19.6921 24.0234 19.4578 24.0234 19.1843C24.0234 18.9109 24.1211 18.6765 24.3164 18.4812C24.5117 18.2859 24.7461 18.1882 25.0195 18.1882C25.293 18.1882 25.5273 18.2859 25.7227 18.4812C25.918 18.6765 26.0156 18.9109 26.0156 19.1843ZM11.0156 28.2078C11.0156 28.4812 10.918 28.7156 10.7227 28.9109C10.5273 29.1062 10.293 29.2039 10.0195 29.2039C9.74609 29.2039 9.51172 29.1062 9.31641 28.9109C9.12109 28.7156 9.02344 28.4812 9.02344 28.2078C9.02344 27.9343 9.12109 27.7 9.31641 27.5046C9.51172 27.3093 9.74609 27.2117 10.0195 27.2117C10.293 27.2117 10.5273 27.3093 10.7227 27.5046C10.918 27.7 11.0156 27.9343 11.0156 28.2078ZM11.0156 34.1843C11.0156 34.4578 10.918 34.6921 10.7227 34.8875C10.5273 35.0828 10.293 35.1804 10.0195 35.1804C9.74609 35.1804 9.51172 35.0828 9.31641 34.8875C9.12109 34.6921 9.02344 34.4578 9.02344 34.1843C9.02344 33.9109 9.12109 33.6765 9.31641 33.4812C9.51172 33.2859 9.74609 33.1882 10.0195 33.1882C10.293 33.1882 10.5273 33.2859 10.7227 33.4812C10.918 33.6765 11.0156 33.9109 11.0156 34.1843ZM14.0039 31.196C14.0039 31.4695 13.9062 31.7039 13.7109 31.8992C13.5156 32.0945 13.2812 32.1921 13.0078 32.1921C12.7344 32.1921 12.5 32.0945 12.3047 31.8992C12.1094 31.7039 12.0117 31.4695 12.0117 31.196C12.0117 30.9226 12.1094 30.6882 12.3047 30.4929C12.5 30.2976 12.7344 30.2 13.0078 30.2C13.2812 30.2 13.5156 30.2976 13.7109 30.4929C13.9062 30.6882 14.0039 30.9226 14.0039 31.196ZM14.0039 37.1726C14.0039 37.4851 13.9062 37.739 13.7109 37.9343C13.5156 38.1296 13.2812 38.2273 13.0078 38.2273C12.7344 38.2273 12.5 38.1296 12.3047 37.9343C12.1094 37.739 12.0117 37.4851 12.0117 37.1726C12.0117 36.8992 12.1094 36.6648 12.3047 36.4695C12.5 36.2742 12.7344 36.1765 13.0078 36.1765C13.2812 36.1765 13.5156 36.2742 13.7109 36.4695C13.9062 36.6648 14.0039 36.8992 14.0039 37.1726ZM11.0156 40.2195C11.0156 40.4929 10.918 40.7273 10.7227 40.9226C10.5273 41.1179 10.293 41.2156 10.0195 41.2156C9.74609 41.2156 9.51172 41.1179 9.31641 40.9226C9.12109 40.7273 9.02344 40.4929 9.02344 40.2195C9.02344 39.946 9.12109 39.7117 9.31641 39.5164C9.51172 39.321 9.74609 39.2234 10.0195 39.2234C10.293 39.2234 10.5273 39.321 10.7227 39.5164C10.918 39.7117 11.0156 39.946 11.0156 40.2195ZM14.0039 43.2078C14.0039 43.4812 13.9062 43.7156 13.7109 43.9109C13.5156 44.1062 13.2812 44.2039 13.0078 44.2039C12.7344 44.2039 12.5 44.1062 12.3047 43.9109C12.1094 43.7156 12.0117 43.4812 12.0117 43.2078C12.0117 42.9343 12.1094 42.7 12.3047 42.5046C12.5 42.3093 12.7344 42.2117 13.0078 42.2117C13.2812 42.2117 13.5156 42.3093 13.7109 42.5046C13.9062 42.7 14.0039 42.9343 14.0039 43.2078Z" fill="#210D94"/>
</svg>
