<svg width="60" height="61" viewBox="0 0 60 61" fill="none" xmlns="http://www.w3.org/2000/svg">
<g clip-path="url(#clip0_1_232)">
<path d="M53.4375 0.389893C51.6406 0.389893 50.1074 1.03442 48.8379 2.32349C47.5684 3.61255 46.9336 5.15552 46.9336 6.95239C46.9336 7.49927 47.002 8.03638 47.1387 8.56372C47.2754 9.09106 47.4609 9.58911 47.6953 10.0579L36.9727 20.7805C36.2305 20.1946 35.4102 19.7454 34.5117 19.4329C33.6133 19.1204 32.6562 18.9641 31.6406 18.9641C30.625 18.9641 29.668 19.1204 28.7695 19.4329C27.8711 19.7454 27.0508 20.1946 26.3086 20.7805L17.9297 12.4016C18.125 12.0891 18.2812 11.7473 18.3984 11.3762C18.5156 11.0051 18.5742 10.6243 18.5742 10.2336C18.5742 9.02271 18.1445 7.98755 17.2852 7.12817C16.4258 6.2688 15.3906 5.83911 14.1797 5.83911C12.9688 5.83911 11.9434 6.2688 11.1035 7.12817C10.2637 7.98755 9.84375 9.02271 9.84375 10.2336C9.84375 11.4055 10.2637 12.4211 11.1035 13.2805C11.9434 14.1399 12.9688 14.5696 14.1797 14.5696C14.5703 14.5696 14.9512 14.511 15.3223 14.3938C15.6934 14.2766 16.0547 14.1204 16.4062 13.925L24.7266 22.304C24.1797 23.0461 23.7402 23.8762 23.4082 24.7942C23.0762 25.7122 22.9102 26.6594 22.9102 27.636C22.9102 28.6516 23.0762 29.6184 23.4082 30.5364C23.7402 31.4543 24.1797 32.2844 24.7266 33.0266L10.957 46.7961C10.3711 46.2883 9.69727 45.8782 8.93555 45.5657C8.17383 45.2532 7.38281 45.0969 6.5625 45.0969C4.76562 45.0969 3.22266 45.7415 1.93359 47.0305C0.644531 48.3196 0 49.8625 0 51.6594C0 53.4563 0.644531 54.9993 1.93359 56.2883C3.22266 57.5774 4.76562 58.2219 6.5625 58.2219C8.35938 58.2219 9.89258 57.5774 11.1621 56.2883C12.4316 54.9993 13.0664 53.4563 13.0664 51.6594C13.0664 51.1125 12.998 50.5754 12.8613 50.0481C12.7246 49.5208 12.5391 49.0227 12.3047 48.554L26.3086 34.55C26.8945 35.0188 27.5488 35.4094 28.2715 35.7219C28.9941 36.0344 29.7461 36.2297 30.5273 36.3079V47.3821C29.0039 47.6555 27.7148 48.3977 26.6602 49.6086C25.6055 50.8196 25.0781 52.2258 25.0781 53.8274C25.0781 55.6243 25.7227 57.1672 27.0117 58.4563C28.3008 59.7454 29.8438 60.3899 31.6406 60.3899C33.4375 60.3899 34.9805 59.7454 36.2695 58.4563C37.5586 57.1672 38.2031 55.6243 38.2031 53.8274C38.2031 52.2258 37.6758 50.8196 36.6211 49.6086C35.5664 48.3977 34.2773 47.6555 32.7539 47.3821V36.3079C33.5352 36.2297 34.2871 36.0344 35.0098 35.7219C35.7324 35.4094 36.3867 35.0188 36.9727 34.55L45.3516 42.929C45.1562 43.2415 45 43.5833 44.8828 43.9543C44.7656 44.3254 44.707 44.7063 44.707 45.0969C44.707 46.3079 45.1367 47.343 45.9961 48.2024C46.8555 49.0618 47.8906 49.4915 49.1016 49.4915C50.3125 49.4915 51.3379 49.0618 52.1777 48.2024C53.0176 47.343 53.4375 46.3079 53.4375 45.0969C53.4375 43.925 53.0176 42.9094 52.1777 42.05C51.3379 41.1907 50.3125 40.761 49.1016 40.761C48.6719 40.761 48.2812 40.8196 47.9297 40.9368C47.5781 41.054 47.2266 41.1907 46.875 41.3469L38.4961 33.0266C39.082 32.2844 39.541 31.4543 39.873 30.5364C40.2051 29.6184 40.3711 28.6516 40.3711 27.636C40.3711 26.6594 40.2051 25.7122 39.873 24.7942C39.541 23.8762 39.082 23.0461 38.4961 22.304L49.043 11.7571C49.6289 12.304 50.3027 12.7239 51.0645 13.0168C51.8262 13.3098 52.6172 13.4563 53.4375 13.4563C55.2344 13.4563 56.7773 12.8215 58.0664 11.552C59.3555 10.2825 60 8.74927 60 6.95239C60 5.15552 59.3555 3.61255 58.0664 2.32349C56.7773 1.03442 55.2344 0.389893 53.4375 0.389893ZM12.0117 10.2336C12.0117 9.60864 12.2266 9.0813 12.6562 8.65161C13.0859 8.22192 13.5938 8.00708 14.1797 8.00708C14.7656 8.00708 15.2734 8.22192 15.7031 8.65161C16.1328 9.0813 16.3477 9.60864 16.3477 10.2336C16.3477 10.8196 16.1328 11.3274 15.7031 11.7571C15.2734 12.1868 14.7656 12.4016 14.1797 12.4016C13.5938 12.4016 13.0859 12.1868 12.6562 11.7571C12.2266 11.3274 12.0117 10.8196 12.0117 10.2336ZM6.5625 56.054C5.35156 56.054 4.31641 55.6243 3.45703 54.7649C2.59766 53.9055 2.16797 52.8704 2.16797 51.6594C2.16797 50.4485 2.59766 49.4231 3.45703 48.5833C4.31641 47.7434 5.35156 47.3235 6.5625 47.3235C7.77344 47.3235 8.79883 47.7434 9.63867 48.5833C10.4785 49.4231 10.8984 50.4485 10.8984 51.6594C10.8984 52.8704 10.4785 53.9055 9.63867 54.7649C8.79883 55.6243 7.77344 56.054 6.5625 56.054ZM35.9766 53.8274C35.9766 55.0383 35.5566 56.0735 34.7168 56.9329C33.877 57.7922 32.8516 58.2219 31.6406 58.2219C30.4297 58.2219 29.3945 57.7922 28.5352 56.9329C27.6758 56.0735 27.2461 55.0383 27.2461 53.8274C27.2461 52.6165 27.6758 51.5911 28.5352 50.7512C29.3945 49.9114 30.4297 49.4915 31.6406 49.4915C32.8516 49.4915 33.877 49.9114 34.7168 50.7512C35.5566 51.5911 35.9766 52.6165 35.9766 53.8274ZM31.6406 34.1985C29.8438 34.1985 28.3008 33.5637 27.0117 32.2942C25.7227 31.0247 25.0781 29.4719 25.0781 27.636C25.0781 25.8391 25.7227 24.3059 27.0117 23.0364C28.3008 21.7668 29.8438 21.1321 31.6406 21.1321C33.4375 21.1321 34.9805 21.7668 36.2695 23.0364C37.5586 24.3059 38.2031 25.8391 38.2031 27.636C38.2031 29.4719 37.5586 31.0247 36.2695 32.2942C34.9805 33.5637 33.4375 34.1985 31.6406 34.1985ZM51.2695 45.0969C51.2695 45.7219 51.0547 46.2493 50.625 46.679C50.1953 47.1086 49.6875 47.3235 49.1016 47.3235C48.4766 47.3235 47.959 47.1086 47.5488 46.679C47.1387 46.2493 46.9336 45.7219 46.9336 45.0969C46.9336 44.511 47.1387 44.0032 47.5488 43.5735C47.959 43.1438 48.4766 42.929 49.1016 42.929C49.6875 42.929 50.1953 43.1438 50.625 43.5735C51.0547 44.0032 51.2695 44.511 51.2695 45.0969ZM53.4375 11.2883C52.2266 11.2883 51.2012 10.8684 50.3613 10.0286C49.5215 9.18872 49.1016 8.16333 49.1016 6.95239C49.1016 5.74146 49.5215 4.7063 50.3613 3.84692C51.2012 2.98755 52.2266 2.55786 53.4375 2.55786C54.6484 2.55786 55.6836 2.98755 56.543 3.84692C57.4023 4.7063 57.832 5.74146 57.832 6.95239C57.832 8.16333 57.4023 9.18872 56.543 10.0286C55.6836 10.8684 54.6484 11.2883 53.4375 11.2883Z" fill="#210D94"/>
</g>
<defs>
<clipPath id="clip0_1_232">
<rect width="60" height="60" fill="white" transform="matrix(1 0 0 -1 0 60.3899)"/>
</clipPath>
</defs>
</svg>
