<svg width="61" height="61" viewBox="0 0 61 61" fill="none" xmlns="http://www.w3.org/2000/svg">
<path d="M55.7105 18.8154L60.2808 4.9873C60.3199 4.83105 60.3297 4.68457 60.3101 4.54785C60.2906 4.41113 60.2418 4.28418 60.1636 4.16699C60.0855 4.0498 59.9879 3.96191 59.8707 3.90332C59.7535 3.84473 59.6168 3.81543 59.4605 3.81543H5.84723V2.81934C5.84723 2.07715 5.58356 1.43262 5.05621 0.885742C4.52887 0.338867 3.87457 0.0654297 3.09332 0.0654297C2.35114 0.0654297 1.7066 0.338867 1.15973 0.885742C0.612854 1.43262 0.339417 2.07715 0.339417 2.81934V59.1865C0.339417 59.4209 0.427307 59.626 0.603088 59.8018C0.77887 59.9775 0.983948 60.0654 1.21832 60.0654C1.4527 60.0654 1.65778 59.9775 1.83356 59.8018C2.00934 59.626 2.09723 59.4209 2.09723 59.1865V2.81934C2.09723 2.5459 2.19489 2.31152 2.3902 2.11621C2.58551 1.9209 2.81989 1.82324 3.09332 1.82324C3.36676 1.82324 3.60114 1.9209 3.79645 2.11621C3.99176 2.31152 4.08942 2.5459 4.08942 2.81934V6.56934C4.08942 6.80371 4.17731 7.00879 4.35309 7.18457C4.52887 7.36035 4.73395 7.44824 4.96832 7.44824C5.2027 7.44824 5.40778 7.36035 5.58356 7.18457C5.75934 7.00879 5.84723 6.80371 5.84723 6.56934V5.57324H58.23L53.9527 18.5225C53.9136 18.6006 53.8941 18.6885 53.8941 18.7861C53.8941 18.8838 53.9136 18.9717 53.9527 19.0498L58.23 31.999H5.84723V10.3193C5.84723 10.085 5.75934 9.87988 5.58356 9.7041C5.40778 9.52832 5.2027 9.44043 4.96832 9.44043C4.73395 9.44043 4.52887 9.52832 4.35309 9.7041C4.17731 9.87988 4.08942 10.085 4.08942 10.3193V59.1865C4.08942 59.4209 4.17731 59.626 4.35309 59.8018C4.52887 59.9775 4.73395 60.0654 4.96832 60.0654C5.2027 60.0654 5.40778 59.9775 5.58356 59.8018C5.75934 59.626 5.84723 59.4209 5.84723 59.1865V33.7568H59.4605C59.6168 33.7568 59.7535 33.7275 59.8707 33.6689C59.9879 33.6104 60.0855 33.5225 60.1636 33.4053C60.2418 33.2881 60.2906 33.1611 60.3101 33.0244C60.3297 32.8877 60.3199 32.7412 60.2808 32.585L55.7105 18.8154ZM18.1519 13.1904H10.5933C10.3589 13.1904 10.1539 13.2783 9.97809 13.4541C9.80231 13.6299 9.71442 13.835 9.71442 14.0693C9.71442 14.3428 9.80231 14.5576 9.97809 14.7139C10.1539 14.8701 10.3589 14.9482 10.5933 14.9482H13.4644V23.5029C13.4644 23.7373 13.5523 23.9424 13.7281 24.1182C13.9039 24.2939 14.1089 24.3818 14.3433 24.3818C14.6168 24.3818 14.8316 24.2939 14.9879 24.1182C15.1441 23.9424 15.2222 23.7373 15.2222 23.5029V14.9482H18.1519C18.3863 14.9482 18.5914 14.8701 18.7672 14.7139C18.9429 14.5576 19.0308 14.3428 19.0308 14.0693C19.0308 13.835 18.9429 13.6299 18.7672 13.4541C18.5914 13.2783 18.3863 13.1904 18.1519 13.1904ZM26.5894 22.624H21.8433V19.6943H24.7144C24.9488 19.6943 25.1539 19.6064 25.3297 19.4307C25.5054 19.2549 25.5933 19.0498 25.5933 18.8154C25.5933 18.542 25.5054 18.3271 25.3297 18.1709C25.1539 18.0146 24.9488 17.9365 24.7144 17.9365H21.8433V14.9482H26.5894C26.8238 14.9482 27.0289 14.8701 27.2047 14.7139C27.3804 14.5576 27.4683 14.3428 27.4683 14.0693C27.4683 13.835 27.3804 13.6299 27.2047 13.4541C27.0289 13.2783 26.8238 13.1904 26.5894 13.1904H20.9644C20.691 13.1904 20.4761 13.2783 20.3199 13.4541C20.1636 13.6299 20.0855 13.835 20.0855 14.0693V23.5029C20.0855 23.7373 20.1636 23.9424 20.3199 24.1182C20.4761 24.2939 20.691 24.3818 20.9644 24.3818H26.5894C26.8238 24.3818 27.0289 24.2939 27.2047 24.1182C27.3804 23.9424 27.4683 23.7373 27.4683 23.5029C27.4683 23.2686 27.3804 23.0635 27.2047 22.8877C27.0289 22.7119 26.8238 22.624 26.5894 22.624ZM37.7808 23.21L34.9683 13.835C34.8902 13.6396 34.773 13.4834 34.6168 13.3662C34.4605 13.249 34.2847 13.1904 34.0894 13.1904H32.2144C32.0191 13.1904 31.8433 13.249 31.6871 13.3662C31.5308 13.4834 31.4332 13.6396 31.3941 13.835L28.5816 23.21C28.5035 23.4443 28.523 23.6689 28.6402 23.8838C28.7574 24.0986 28.9332 24.2451 29.1675 24.3232C29.4019 24.4014 29.6265 24.3818 29.8414 24.2646C30.0562 24.1475 30.1832 23.9717 30.2222 23.7373L30.9254 21.5693H35.4371L36.0816 23.7373C36.1207 23.9326 36.2183 24.0889 36.3746 24.2061C36.5308 24.3232 36.7066 24.3818 36.9019 24.3818C36.941 24.3818 36.98 24.3721 37.0191 24.3525C37.0582 24.333 37.1168 24.3232 37.1949 24.3232C37.3902 24.2451 37.5464 24.0986 37.6636 23.8838C37.7808 23.6689 37.8199 23.4443 37.7808 23.21ZM31.4527 19.8115L32.8589 14.9482H33.4449L34.9097 19.8115H31.4527ZM49.148 13.1904H48.2691C48.0738 13.1904 47.9078 13.249 47.7711 13.3662C47.6343 13.4834 47.5269 13.6201 47.4488 13.7764L44.9293 20.8662L42.3511 13.7764C42.273 13.6201 42.1656 13.4834 42.0289 13.3662C41.8922 13.249 41.7261 13.1904 41.5308 13.1904H40.6519C40.4175 13.1904 40.2125 13.2783 40.0367 13.4541C39.8609 13.6299 39.773 13.835 39.773 14.0693V23.5029C39.773 23.7373 39.8609 23.9424 40.0367 24.1182C40.2125 24.2939 40.4175 24.3818 40.6519 24.3818C40.9254 24.3818 41.1402 24.2939 41.2964 24.1182C41.4527 23.9424 41.5308 23.7373 41.5308 23.5029V16.7646L44.0504 23.6787C44.0504 23.7178 44.0601 23.7568 44.0797 23.7959C44.0992 23.835 44.1285 23.8936 44.1675 23.9717C44.2457 24.0889 44.3531 24.1865 44.4898 24.2646C44.6265 24.3428 44.773 24.3818 44.9293 24.3818C44.9683 24.3818 45.0172 24.3721 45.0757 24.3525C45.1343 24.333 45.2027 24.3037 45.2808 24.2646C45.398 24.2256 45.4957 24.1572 45.5738 24.0596C45.6519 23.9619 45.7105 23.874 45.7496 23.7959C45.7496 23.7178 46.0425 22.8682 46.6285 21.2471C47.2144 19.626 47.7613 18.1318 48.2691 16.7646V23.5029C48.2691 23.7373 48.3472 23.9424 48.5035 24.1182C48.6597 24.2939 48.8746 24.3818 49.148 24.3818C49.3824 24.3818 49.5875 24.2939 49.7632 24.1182C49.939 23.9424 50.0269 23.7373 50.0269 23.5029V14.0693C50.0269 13.835 49.939 13.6299 49.7632 13.4541C49.5875 13.2783 49.3824 13.1904 49.148 13.1904Z" fill="white"/>
</svg>
