<svg width="60" height="61" viewBox="0 0 60 61" fill="none" xmlns="http://www.w3.org/2000/svg">
<g clip-path="url(#clip0_1_256)">
<path d="M55.3711 17.6165C55.3711 17.5774 55.3809 17.5481 55.4004 17.5286C55.4199 17.509 55.4297 17.4797 55.4297 17.4407C55.7031 16.8157 56.0352 16.2297 56.4258 15.6829C56.8164 15.136 57.2656 14.6477 57.7734 14.218L58.6523 13.5149L57.7734 12.8118C57.2656 12.3821 56.8164 11.8938 56.4258 11.3469C56.0352 10.8 55.7031 10.2141 55.4297 9.58911C55.1562 8.96411 54.9707 8.30981 54.873 7.62622C54.7754 6.94263 54.7656 6.28833 54.8438 5.66333L54.9609 4.49146L53.7891 4.60864C53.1641 4.68677 52.5098 4.677 51.8262 4.57935C51.1426 4.48169 50.4883 4.29614 49.8633 4.02271C49.2383 3.74927 48.6523 3.41724 48.1055 3.02661C47.5586 2.63599 47.0703 2.18677 46.6406 1.67896L45.9375 0.800049L45.2344 1.67896C44.8047 2.18677 44.3164 2.63599 43.7695 3.02661C43.2227 3.41724 42.6367 3.74927 42.0117 4.02271C41.3867 4.29614 40.7324 4.48169 40.0488 4.57935C39.3652 4.677 38.7109 4.68677 38.0859 4.60864L36.9141 4.49146L37.0312 5.66333C37.1094 6.28833 37.0996 6.94263 37.002 7.62622C36.9043 8.30981 36.7188 8.96411 36.4453 9.58911C36.3281 9.82349 36.2012 10.0676 36.0645 10.3215C35.9277 10.5754 35.8008 10.8 35.6836 10.9954C34.5508 10.9172 33.4082 10.8489 32.2559 10.7903C31.1035 10.7317 29.9414 10.7024 28.7695 10.7024C28.3789 10.1165 27.8809 9.65747 27.2754 9.32544C26.6699 8.99341 26.0156 8.82739 25.3125 8.82739C24.6094 8.82739 23.9551 8.99341 23.3496 9.32544C22.7441 9.65747 22.2461 10.0969 21.8555 10.6438L19.3359 3.72974C19.0625 2.98755 18.6133 2.40161 17.9883 1.97192C17.3633 1.54224 16.6797 1.32739 15.9375 1.32739C15.1953 1.32739 14.5117 1.54224 13.8867 1.97192C13.2617 2.40161 12.8125 2.98755 12.5391 3.72974L8.78906 14.1008C5.9375 15.2336 3.75977 16.552 2.25586 18.0559C0.751953 19.5598 0 21.1711 0 22.8899V54.7649C0 56.054 0.458984 57.1575 1.37695 58.0754C2.29492 58.9934 3.39844 59.4524 4.6875 59.4524H9.375V51.1907C10.7031 50.7219 12.1582 50.2922 13.7402 49.9016C15.3223 49.511 16.9922 49.179 18.75 48.9055V54.7649C18.75 56.054 19.209 57.1575 20.127 58.0754C21.0449 58.9934 22.1484 59.4524 23.4375 59.4524H34.6875C35.9766 59.4524 37.0801 58.9934 37.998 58.0754C38.916 57.1575 39.375 56.054 39.375 54.7649V48.9055C41.1328 49.179 42.8027 49.511 44.3848 49.9016C45.9668 50.2922 47.4219 50.7219 48.75 51.1907V59.4524H53.4375C54.7266 59.4524 55.8301 58.9934 56.748 58.0754C57.666 57.1575 58.125 56.054 58.125 54.7649V22.8899C58.125 21.9524 57.8906 21.0442 57.4219 20.1653C56.9531 19.2864 56.2695 18.4368 55.3711 17.6165ZM38.1445 10.2922C38.418 9.7063 38.623 9.09106 38.7598 8.44653C38.8965 7.802 38.9648 7.16724 38.9648 6.54224C39.5898 6.54224 40.2246 6.47388 40.8691 6.33716C41.5137 6.20044 42.1289 5.99536 42.7148 5.72192C43.3398 5.48755 43.916 5.19458 44.4434 4.84302C44.9707 4.49146 45.4688 4.10083 45.9375 3.67114C46.4062 4.10083 46.9043 4.49146 47.4316 4.84302C47.959 5.19458 48.5352 5.48755 49.1602 5.72192C49.7461 5.99536 50.3613 6.20044 51.0059 6.33716C51.6504 6.47388 52.2852 6.54224 52.9102 6.54224C52.9102 7.16724 52.9785 7.802 53.1152 8.44653C53.252 9.09106 53.457 9.7063 53.7305 10.2922C53.9648 10.9172 54.2578 11.4934 54.6094 12.0208C54.9609 12.5481 55.3516 13.0461 55.7812 13.5149C55.3516 13.9836 54.9609 14.4817 54.6094 15.009C54.2578 15.5364 53.9648 16.1125 53.7305 16.7375C53.457 17.3235 53.252 17.9387 53.1152 18.5833C52.9785 19.2278 52.9102 19.8625 52.9102 20.4875C52.2852 20.4875 51.6504 20.5559 51.0059 20.6926C50.3613 20.8293 49.7461 21.0344 49.1602 21.3079C48.5352 21.5422 47.959 21.8352 47.4316 22.1868C46.9043 22.5383 46.4062 22.929 45.9375 23.3586C45.4688 22.929 44.9707 22.5383 44.4434 22.1868C43.916 21.8352 43.3398 21.5422 42.7148 21.3079C42.1289 21.0344 41.5137 20.8293 40.8691 20.6926C40.2246 20.5559 39.5898 20.4875 38.9648 20.4875C38.9648 19.8625 38.8965 19.2278 38.7598 18.5833C38.623 17.9387 38.418 17.3235 38.1445 16.7375C37.9102 16.1125 37.6172 15.5364 37.2656 15.009C36.9141 14.4817 36.5234 13.9836 36.0938 13.5149C36.5234 13.0461 36.9141 12.5481 37.2656 12.0208C37.6172 11.4934 37.9102 10.9172 38.1445 10.2922ZM25.3125 10.7024C25.7422 10.7024 26.1328 10.8098 26.4844 11.0247C26.8359 11.2395 27.1094 11.5227 27.3047 11.8743L33.0469 21.9524H17.5781L23.3203 11.8743C23.5156 11.5227 23.7891 11.2395 24.1406 11.0247C24.4922 10.8098 24.8828 10.7024 25.3125 10.7024ZM14.2969 4.37427C14.4141 4.02271 14.6289 3.7395 14.9414 3.52466C15.2539 3.30981 15.5859 3.20239 15.9375 3.20239C16.2891 3.20239 16.6211 3.30981 16.9336 3.52466C17.2461 3.7395 17.4609 4.02271 17.5781 4.37427L20.625 12.7532L15.4102 21.9524H7.91016L14.2969 4.37427ZM7.5 57.5774H4.6875C3.90625 57.5774 3.24219 57.304 2.69531 56.7571C2.14844 56.2102 1.875 55.5461 1.875 54.7649V26.6399C2.26562 26.9524 2.69531 27.1868 3.16406 27.343C3.63281 27.4993 4.14062 27.5774 4.6875 27.5774H7.5V57.5774ZM37.5 31.3274H20.625V30.3899C20.625 29.6086 20.8984 28.9446 21.4453 28.3977C21.9922 27.8508 22.6562 27.5774 23.4375 27.5774H34.6875C35.4688 27.5774 36.1328 27.8508 36.6797 28.3977C37.2266 28.9446 37.5 29.6086 37.5 30.3899V31.3274ZM37.5 33.2024V50.0774H20.625V33.2024H37.5ZM34.6875 57.5774H23.4375C22.6562 57.5774 21.9922 57.304 21.4453 56.7571C20.8984 56.2102 20.625 55.5461 20.625 54.7649V51.9524H37.5V54.7649C37.5 55.5461 37.2266 56.2102 36.6797 56.7571C36.1328 57.304 35.4688 57.5774 34.6875 57.5774ZM56.25 54.7649C56.25 55.5461 55.9766 56.2102 55.4297 56.7571C54.8828 57.304 54.2188 57.5774 53.4375 57.5774H50.625V27.5774H53.4375C53.9453 27.5774 54.4434 27.4993 54.9316 27.343C55.4199 27.1868 55.8594 26.9524 56.25 26.6399V54.7649ZM53.4375 25.7024H48.75V49.1985C47.3828 48.7297 45.9082 48.3098 44.3262 47.9387C42.7441 47.5676 41.0938 47.2649 39.375 47.0305V30.3899C39.375 29.1008 38.916 27.9973 37.998 27.0793C37.0801 26.1614 35.9766 25.7024 34.6875 25.7024H23.4375C22.1484 25.7024 21.0449 26.1614 20.127 27.0793C19.209 27.9973 18.75 29.1008 18.75 30.3899V47.0305C17.0312 47.2649 15.3809 47.5676 13.7988 47.9387C12.2168 48.3098 10.7422 48.7297 9.375 49.1985V25.7024H4.6875C3.90625 25.7024 3.24219 25.429 2.69531 24.8821C2.14844 24.3352 1.875 23.6711 1.875 22.8899C1.875 21.7571 2.39258 20.6438 3.42773 19.55C4.46289 18.4563 5.9375 17.4407 7.85156 16.5032L5.21484 23.8274H36.3281L29.8828 12.5774C30.5859 12.5774 31.2891 12.5969 31.9922 12.636C32.6953 12.675 33.3984 12.7141 34.1016 12.7532C34.1016 12.7532 34.1016 12.7629 34.1016 12.7825C34.1016 12.802 34.1016 12.8118 34.1016 12.8118L33.2227 13.5149L34.1016 14.218C34.6094 14.6477 35.0586 15.136 35.4492 15.6829C35.8398 16.2297 36.1719 16.8157 36.4453 17.4407C36.7188 18.0657 36.9043 18.72 37.002 19.4036C37.0996 20.0872 37.1094 20.7415 37.0312 21.3665L36.9141 22.5383L38.0859 22.4211C38.7109 22.343 39.3652 22.3528 40.0488 22.4504C40.7324 22.5481 41.3867 22.7336 42.0117 23.0071C42.6367 23.2805 43.2227 23.6125 43.7695 24.0032C44.3164 24.3938 44.8047 24.843 45.2344 25.3508L45.9375 26.2297L46.6406 25.3508C47.0703 24.843 47.5586 24.3938 48.1055 24.0032C48.6523 23.6125 49.2383 23.2805 49.8633 23.0071C50.4883 22.7336 51.1426 22.5481 51.8262 22.4504C52.5098 22.3528 53.1641 22.343 53.7891 22.4211L54.9609 22.5383L54.8438 21.3665C54.8047 21.093 54.7852 20.8196 54.7852 20.5461C54.7852 20.2727 54.8047 19.9993 54.8438 19.7258C55.3125 20.2336 55.6641 20.7512 55.8984 21.2786C56.1328 21.8059 56.25 22.343 56.25 22.8899C56.25 23.6711 55.9766 24.3352 55.4297 24.8821C54.8828 25.429 54.2188 25.7024 53.4375 25.7024ZM45.9375 20.0774C47.7344 20.0774 49.2773 19.4329 50.5664 18.1438C51.8555 16.8547 52.5 15.3118 52.5 13.5149C52.5 11.718 51.8555 10.175 50.5664 8.88599C49.2773 7.59692 47.7344 6.95239 45.9375 6.95239C44.1406 6.95239 42.5977 7.59692 41.3086 8.88599C40.0195 10.175 39.375 11.718 39.375 13.5149C39.375 15.3118 40.0195 16.8547 41.3086 18.1438C42.5977 19.4329 44.1406 20.0774 45.9375 20.0774ZM45.9375 8.82739C47.2266 8.82739 48.3301 9.28638 49.248 10.2043C50.166 11.1223 50.625 12.2258 50.625 13.5149C50.625 14.804 50.166 15.9075 49.248 16.8254C48.3301 17.7434 47.2266 18.2024 45.9375 18.2024C44.6484 18.2024 43.5449 17.7434 42.627 16.8254C41.709 15.9075 41.25 14.804 41.25 13.5149C41.25 12.2258 41.709 11.1223 42.627 10.2043C43.5449 9.28638 44.6484 8.82739 45.9375 8.82739ZM27.1875 53.8274H30.9375V55.7024H27.1875V53.8274ZM35.625 48.2024V35.0774H22.5V48.2024H35.625ZM24.375 36.9524H33.75V46.3274H24.375V36.9524ZM11.25 44.4524H13.125V46.3274H11.25V44.4524ZM11.25 40.7024H13.125V42.5774H11.25V40.7024ZM11.25 36.9524H13.125V38.8274H11.25V36.9524ZM45 27.5774H46.875V29.4524H45V27.5774ZM45 31.3274H46.875V33.2024H45V31.3274ZM45 35.0774H46.875V36.9524H45V35.0774Z" fill="#210D94"/>
</g>
<defs>
<clipPath id="clip0_1_256">
<rect width="60" height="60" fill="white" transform="matrix(1 0 0 -1 0 60.3899)"/>
</clipPath>
</defs>
</svg>
