<svg width="60" height="61" viewBox="0 0 60 61" fill="none" xmlns="http://www.w3.org/2000/svg">
<g clip-path="url(#clip0_1_244)">
<path d="M32.7539 23.1243L0 55.8782L4.45312 60.3899L47.2266 17.6165L42.7734 13.1047L32.7539 23.1243ZM4.45312 57.4016L2.98828 55.8782L33.5156 25.3508L35.0391 26.8743L4.45312 57.4016ZM36.5039 25.3508L35.0391 23.8274L42.7734 16.1516L44.2383 17.6165L36.5039 25.3508ZM42.832 9.94067C43.1055 9.94067 43.3496 9.83325 43.5645 9.61841C43.7793 9.40356 43.8867 9.15942 43.8867 8.88599V1.44458C43.8867 1.17114 43.7793 0.927002 43.5645 0.712158C43.3496 0.497314 43.1055 0.389893 42.832 0.389893C42.5195 0.389893 42.2656 0.497314 42.0703 0.712158C41.875 0.927002 41.7773 1.17114 41.7773 1.44458V8.88599C41.7773 9.15942 41.875 9.40356 42.0703 9.61841C42.2656 9.83325 42.5195 9.94067 42.832 9.94067ZM42.832 24.7649C42.5195 24.7649 42.2656 24.8723 42.0703 25.0872C41.875 25.302 41.7773 25.5461 41.7773 25.8196V33.261C41.7773 33.5344 41.875 33.7786 42.0703 33.9934C42.2656 34.2083 42.5195 34.3157 42.832 34.3157C43.1055 34.3157 43.3496 34.2083 43.5645 33.9934C43.7793 33.7786 43.8867 33.5344 43.8867 33.261V25.8196C43.8867 25.5461 43.7793 25.302 43.5645 25.0872C43.3496 24.8723 43.1055 24.7649 42.832 24.7649ZM58.7109 16.2688H51.3281C51.0156 16.2688 50.7617 16.3762 50.5664 16.5911C50.3711 16.8059 50.2734 17.05 50.2734 17.3235C50.2734 17.636 50.3711 17.8997 50.5664 18.1145C50.7617 18.3293 51.0156 18.4368 51.3281 18.4368H58.7109C59.0234 18.4368 59.2773 18.3293 59.4727 18.1145C59.668 17.8997 59.7656 17.636 59.7656 17.3235C59.7656 17.05 59.668 16.8059 59.4727 16.5911C59.2773 16.3762 59.0234 16.2688 58.7109 16.2688ZM26.8945 18.4368H34.3359C34.6484 18.4368 34.9023 18.3293 35.0977 18.1145C35.293 17.8997 35.3906 17.636 35.3906 17.3235C35.3906 17.05 35.293 16.8059 35.0977 16.5911C34.9023 16.3762 34.6484 16.2688 34.3359 16.2688H26.8945C26.6211 16.2688 26.377 16.3762 26.1621 16.5911C25.9473 16.8059 25.8398 17.05 25.8398 17.3235C25.8398 17.636 25.9473 17.8997 26.1621 18.1145C26.377 18.3293 26.6211 18.4368 26.8945 18.4368ZM49.1602 12.05C49.3164 12.05 49.4629 12.0208 49.5996 11.9622C49.7363 11.9036 49.8438 11.8352 49.9219 11.7571L55.1953 6.48364C55.3906 6.28833 55.4883 6.04419 55.4883 5.75122C55.4883 5.45825 55.3906 5.21411 55.1953 5.0188C54.9609 4.78442 54.6973 4.66724 54.4043 4.66724C54.1113 4.66724 53.8672 4.78442 53.6719 5.0188L48.457 10.2336C48.2227 10.429 48.1055 10.6731 48.1055 10.9661C48.1055 11.259 48.2227 11.5227 48.457 11.7571C48.5352 11.8352 48.6426 11.9036 48.7793 11.9622C48.916 12.0208 49.043 12.05 49.1602 12.05ZM49.9219 22.9485C49.7266 22.7532 49.4824 22.6555 49.1895 22.6555C48.8965 22.6555 48.6523 22.7532 48.457 22.9485C48.2227 23.1829 48.1055 23.4465 48.1055 23.7395C48.1055 24.0325 48.2227 24.2766 48.457 24.4719L53.6719 29.6868C53.7891 29.804 53.9062 29.8918 54.0234 29.9504C54.1406 30.009 54.2773 30.0383 54.4336 30.0383C54.5508 30.0383 54.6777 30.009 54.8145 29.9504C54.9512 29.8918 55.0781 29.804 55.1953 29.6868C55.3906 29.4915 55.4883 29.2473 55.4883 28.9543C55.4883 28.6614 55.3906 28.4172 55.1953 28.2219L49.9219 22.9485ZM35.7422 11.7571C35.8203 11.8352 35.9277 11.9036 36.0645 11.9622C36.2012 12.0208 36.3281 12.05 36.4453 12.05C36.6016 12.05 36.7383 12.0208 36.8555 11.9622C36.9727 11.9036 37.0898 11.8352 37.207 11.7571C37.4023 11.5227 37.5 11.259 37.5 10.9661C37.5 10.6731 37.4023 10.429 37.207 10.2336L31.9922 5.0188C31.7578 4.78442 31.4941 4.66724 31.2012 4.66724C30.9082 4.66724 30.6641 4.78442 30.4688 5.0188C30.2734 5.21411 30.1758 5.45825 30.1758 5.75122C30.1758 6.04419 30.2734 6.28833 30.4688 6.48364L35.7422 11.7571Z" fill="#210D94"/>
</g>
<defs>
<clipPath id="clip0_1_244">
<rect width="60" height="60" fill="white" transform="matrix(1 0 0 -1 0 60.3899)"/>
</clipPath>
</defs>
</svg>
