<svg width="49" height="49" viewBox="0 0 49 49" fill="none" xmlns="http://www.w3.org/2000/svg">
<g clip-path="url(#clip0_62_132)">
<path d="M20.3188 18.8179C22.225 18.8179 23.8657 18.1382 25.2407 16.7788C26.6157 15.4194 27.3032 13.7866 27.3032 11.8804C27.3032 9.94287 26.6157 8.29443 25.2407 6.93506C23.8657 5.57568 22.225 4.896 20.3188 4.896C18.4125 4.896 16.7719 5.57568 15.3969 6.93506C14.0219 8.29443 13.3344 9.94287 13.3344 11.8804C13.3344 13.7866 14.0219 15.4194 15.3969 16.7788C16.7719 18.1382 18.4125 18.8179 20.3188 18.8179ZM20.3188 6.44287C21.8188 6.44287 23.1 6.97412 24.1625 8.03662C25.225 9.09912 25.7563 10.3804 25.7563 11.8804C25.7563 13.3804 25.225 14.6538 24.1625 15.7007C23.1 16.7476 21.8188 17.271 20.3188 17.271C18.8188 17.271 17.5375 16.7476 16.475 15.7007C15.4125 14.6538 14.8813 13.3804 14.8813 11.8804C14.8813 10.3804 15.4125 9.09912 16.475 8.03662C17.5375 6.97412 18.8188 6.44287 20.3188 6.44287ZM31.9438 11.6929C31.9125 10.0991 31.6 8.61475 31.0063 7.23975C30.3813 5.86475 29.5532 4.65381 28.5219 3.60693C27.4907 2.56006 26.2719 1.73975 24.8657 1.146C23.4907 0.552246 22.0063 0.255371 20.4125 0.255371H20.225C18.6625 0.255371 17.1782 0.552246 15.7719 1.146C14.3657 1.73975 13.1469 2.56006 12.1157 3.60693C11.0844 4.65381 10.2563 5.86475 9.63129 7.23975C9.03754 8.61475 8.72504 10.0991 8.69379 11.6929C7.38129 12.6304 6.19379 13.7085 5.13129 14.9272C4.06879 16.146 3.17035 17.4585 2.43597 18.8647C1.7016 20.271 1.14691 21.7554 0.771912 23.3179C0.396912 24.8804 0.209412 26.4897 0.209412 28.146C0.209412 30.896 0.725037 33.5054 1.75629 35.9741C2.81879 38.4116 4.2641 40.5366 6.09222 42.3491C7.92035 44.1616 10.0532 45.5991 12.4907 46.6616C14.9282 47.7241 17.5375 48.2554 20.3188 48.2554C23.1 48.2554 25.7094 47.7241 28.1469 46.6616C30.5844 45.5991 32.7172 44.1616 34.5453 42.3491C36.3735 40.5366 37.8188 38.4116 38.8813 35.9741C39.9125 33.5054 40.4282 30.896 40.4282 28.146C40.4282 26.4897 40.2407 24.8804 39.8657 23.3179C39.4907 21.7554 38.936 20.271 38.2016 18.8647C37.4672 17.4585 36.5688 16.146 35.5063 14.9272C34.4438 13.7085 33.2563 12.6304 31.9438 11.6929ZM20.225 1.80225H20.4125C21.7875 1.80225 23.0844 2.06787 24.3032 2.59912C25.4907 3.13037 26.5375 3.84131 27.4438 4.73193C28.35 5.62256 29.0688 6.67725 29.6 7.896C30.1313 9.11475 30.3969 10.4116 30.3969 11.7866C30.3969 12.7554 30.2563 13.7007 29.975 14.6226C29.6938 15.5444 29.2875 16.4116 28.7563 17.2241L20.8813 29.3647C20.7563 29.5522 20.5688 29.646 20.3188 29.646C20.0688 29.646 19.8813 29.5522 19.7563 29.3647L11.8813 17.2241C11.35 16.4116 10.9438 15.5444 10.6625 14.6226C10.3813 13.7007 10.2407 12.7554 10.2407 11.7866C10.2407 10.4116 10.5063 9.11475 11.0375 7.896C11.5688 6.67725 12.2875 5.62256 13.1938 4.73193C14.1 3.84131 15.1469 3.13037 16.3344 2.59912C17.5532 2.06787 18.85 1.80225 20.225 1.80225ZM1.75629 28.146C1.75629 27.9897 1.75629 27.8491 1.75629 27.7241C1.75629 27.5991 1.75629 27.4741 1.75629 27.3491H3.53754C4.31879 27.3491 5.03754 27.1304 5.69379 26.6929C6.35004 26.2554 6.81879 25.6616 7.10004 24.9116C7.28754 24.4741 7.5766 24.1226 7.96722 23.8569C8.35785 23.5913 8.78754 23.4585 9.25629 23.4585C9.66254 23.4585 10.0453 23.5679 10.4047 23.7866C10.7641 24.0054 11.0375 24.2866 11.225 24.6304L12.3969 26.646C12.6469 27.0835 12.7641 27.5601 12.7485 28.0757C12.7328 28.5913 12.5844 29.0522 12.3032 29.4585C11.6469 30.4272 11.436 31.4897 11.6703 32.646C11.9047 33.8022 12.5063 34.6929 13.475 35.3179L13.7094 35.5054C14.0844 35.7554 14.3735 36.0757 14.5766 36.4663C14.7797 36.8569 14.8813 37.271 14.8813 37.7085C14.8813 38.9585 14.5922 40.1226 14.0141 41.2007C13.436 42.2788 12.6469 43.1616 11.6469 43.8491L11.0375 44.2241C9.66254 43.4116 8.39691 42.4429 7.24066 41.3179C6.11566 40.1929 5.1391 38.9351 4.31097 37.5444C3.48285 36.1538 2.85004 34.6616 2.41254 33.0679C1.97504 31.5054 1.75629 29.8647 1.75629 28.146ZM12.5844 45.021C13.8032 44.1772 14.7485 43.1147 15.4203 41.8335C16.0922 40.5522 16.4282 39.1772 16.4282 37.7085C16.4282 36.9897 16.2641 36.3257 15.936 35.7163C15.6078 35.1069 15.1469 34.5991 14.5532 34.1929L14.3188 34.0522C13.725 33.646 13.35 33.0757 13.1938 32.3413C13.0375 31.6069 13.1625 30.9429 13.5688 30.3491C14.0375 29.6616 14.2797 28.9194 14.2953 28.1226C14.311 27.3257 14.1313 26.5835 13.7563 25.896L12.5844 23.8804C12.2407 23.2866 11.7719 22.8101 11.1782 22.4507C10.5844 22.0913 9.94379 21.9116 9.25629 21.9116C8.44379 21.9116 7.71722 22.1382 7.0766 22.5913C6.43597 23.0444 5.95941 23.6304 5.64691 24.3491C5.49066 24.7866 5.21722 25.1382 4.8266 25.4038C4.43597 25.6694 4.00629 25.8022 3.53754 25.8022H1.89691C2.17816 23.396 2.92035 21.1304 4.12347 19.0054C5.3266 16.8804 6.89691 15.0522 8.83441 13.521C8.95941 14.3335 9.17035 15.1226 9.46722 15.8882C9.7641 16.6538 10.1313 17.3804 10.5688 18.0679L18.4907 30.2085C18.6782 30.521 18.936 30.771 19.2641 30.9585C19.5922 31.146 19.9438 31.2397 20.3188 31.2397C20.6938 31.2397 21.0453 31.146 21.3735 30.9585C21.7016 30.771 21.9594 30.521 22.1469 30.2085L30.0688 18.0679C30.5063 17.3804 30.8735 16.6538 31.1703 15.8882C31.4672 15.1226 31.6782 14.3335 31.8032 13.521C32.2407 13.8647 32.6625 14.2319 33.0688 14.6226C33.475 15.0132 33.8657 15.4116 34.2407 15.8179V18.9585C34.2407 19.8335 33.9516 20.5991 33.3735 21.2554C32.7953 21.9116 32.0844 22.2866 31.2407 22.3804C30.3344 22.5054 29.5766 22.9116 28.9672 23.5991C28.3578 24.2866 28.0532 25.0835 28.0532 25.9897C28.0532 26.5522 28.1703 27.0757 28.4047 27.5601C28.6391 28.0444 28.975 28.4585 29.4125 28.8022L30.1625 29.4116C30.6938 29.8179 31.0766 30.3413 31.311 30.9819C31.5453 31.6226 31.6157 32.271 31.5219 32.9272C31.4282 33.4585 31.225 33.9507 30.9125 34.4038C30.6 34.8569 30.2094 35.2241 29.7407 35.5054C28.9907 35.9429 28.3266 36.4819 27.7485 37.1226C27.1703 37.7632 26.6782 38.4741 26.2719 39.2554L25.1469 41.5054C24.8344 42.1304 24.6 42.7866 24.4438 43.4741C24.2875 44.1616 24.2094 44.8647 24.2094 45.5835V46.2866C23.5844 46.4429 22.9438 46.5522 22.2875 46.6147C21.6313 46.6772 20.975 46.7085 20.3188 46.7085C18.9438 46.7085 17.6078 46.5601 16.311 46.2632C15.0141 45.9663 13.7719 45.5522 12.5844 45.021ZM25.7563 45.9116V45.5835C25.7563 44.9897 25.8188 44.4038 25.9438 43.8257C26.0688 43.2476 26.2719 42.7085 26.5532 42.2085L27.6782 39.9585C27.9907 39.3022 28.3891 38.7085 28.8735 38.1772C29.3578 37.646 29.9125 37.1929 30.5375 36.8179C31.225 36.4116 31.7797 35.896 32.2016 35.271C32.6235 34.646 32.8969 33.9429 33.0219 33.1616C33.1782 32.2241 33.0844 31.3101 32.7407 30.4194C32.3969 29.5288 31.8657 28.7866 31.1469 28.1929L30.3969 27.5835C30.1469 27.396 29.9516 27.1616 29.811 26.8804C29.6703 26.5991 29.6 26.3022 29.6 25.9897C29.6 25.4585 29.7719 24.9976 30.1157 24.6069C30.4594 24.2163 30.8969 23.9897 31.4282 23.9272C32.6782 23.771 33.7172 23.2241 34.5453 22.2866C35.3735 21.3491 35.7875 20.2397 35.7875 18.9585V17.8804C36.7875 19.3804 37.5532 20.9976 38.0844 22.7319C38.6157 24.4663 38.8813 26.271 38.8813 28.146C38.8813 30.2085 38.5532 32.1929 37.8969 34.0991C37.2407 36.0054 36.3266 37.7319 35.1547 39.2788C33.9828 40.8257 32.6 42.1772 31.0063 43.3335C29.3813 44.4585 27.6313 45.3179 25.7563 45.9116ZM34.2407 25.8022H35.7875V27.3491H34.2407V25.8022ZM8.69379 27.3491H10.2407V28.896H8.69379V27.3491ZM5.60004 35.0835H7.14691V36.6304H5.60004V35.0835ZM29.6 39.7241H31.1469V41.271H29.6V39.7241ZM11.0375 38.9741H12.5844V40.521H11.0375V38.9741Z" fill="#210D94"/>
</g>
<defs>
<clipPath id="clip0_62_132">
<rect width="48" height="48" fill="white" transform="matrix(1 0 0 -1 0.209412 48.2554)"/>
</clipPath>
</defs>
</svg>
